<?xml version="1.0" encoding="UTF-8"?>
<svg width="24px" height="24px" viewBox="0 0 24 24" version="1.1" xmlns="http://www.w3.org/2000/svg" xmlns:xlink="http://www.w3.org/1999/xlink">
    <title>Artboard</title>
    <g id="Artboard" stroke="none" stroke-width="1" fill="none" fill-rule="evenodd">
        <g id="spotify-svg" transform="translate(-0.000000, 0.000000)" fill="#FF00FF" fill-rule="nonzero">
            <path d="M19.098,10.638 C15.23,8.341 8.85,8.13 5.157,9.251 C4.564,9.431 3.937,9.096 3.758,8.503 C3.578,7.91 3.912,7.283 4.506,7.103 C8.745,5.816 15.791,6.065 20.244,8.708 C20.777,9.025 20.952,9.713 20.636,10.246 C20.32,10.779 19.631,10.955 19.098,10.638 Z M18.972,14.041 C18.7,14.481 18.125,14.619 17.685,14.349 C14.46,12.367 9.543,11.792 5.727,12.95 C5.233,13.1 4.71,12.821 4.56,12.327 C4.411,11.832 4.69,11.311 5.184,11.16 C9.542,9.838 14.96,10.478 18.664,12.755 C19.104,13.025 19.242,13.602 18.972,14.041 Z M17.503,17.308 C17.288,17.662 16.827,17.773 16.475,17.557 C13.657,15.835 10.11,15.446 5.933,16.4 C5.531,16.492 5.13,16.24 5.038,15.838 C4.946,15.435 5.197,15.034 5.6,14.942 C10.171,13.897 14.092,14.347 17.255,16.28 C17.608,16.495 17.719,16.956 17.503,17.308 L17.503,17.308 Z M12,0 C5.373,0 -1.42108547e-14,5.373 -1.42108547e-14,12 C-1.42108547e-14,18.628 5.373,24 12,24 C18.628,24 24,18.628 24,12 C24,5.373 18.628,0 12,0 Z" id="Shape"></path>
        </g>
    </g>
</svg>